<svg xmlns="http://www.w3.org/2000/svg" xmlns:xlink="http://www.w3.org/1999/xlink" width="869" zoomAndPan="magnify" viewBox="0 0 651.75 340.49999" height="453" preserveAspectRatio="xMidYMid meet" version="1.0"><defs><g/></defs><path fill="#ffffff" d="M 444.550781 73.371094 C 375.21875 87.652344 368.632812 148.242188 289.507812 178.054688 C 193.511719 214.21875 136.871094 122.585938 173.167969 73.421875 C 202.367188 34.25 268.625 42.757812 288.054688 83.976562 C 290.070312 88.261719 284.222656 91.851562 281.292969 88.132812 C 270.453125 74.375 259.277344 60.59375 240.460938 57.972656 C 206.980469 50.628906 175.644531 69.050781 172.222656 104.5 C 168.699219 140.996094 196.503906 166.246094 221.089844 171.484375 C 292.304688 186.644531 353.863281 112.148438 387.976562 82.433594 C 428.472656 47.160156 456.359375 70.9375 444.550781 73.371094 " fill-opacity="1" fill-rule="nonzero"/><path fill="#ffffff" d="M 359.535156 148.070312 C 360.613281 147.53125 361.914062 147.769531 362.851562 148.515625 C 435.941406 206.714844 508.765625 131.503906 485.417969 74.027344 C 470.128906 36.394531 418.546875 37.363281 384.183594 61.257812 C 350.246094 85.734375 280.105469 183.742188 219 157.222656 C 184.246094 142.140625 185.414062 106.46875 202.863281 92.488281 C 205.859375 90.085938 209.609375 91.4375 205.199219 96.394531 C 186.554688 117.363281 196.078125 144.988281 224.402344 154.113281 C 286.355469 174.019531 339.453125 76.871094 391.707031 45.644531 C 422.9375 26.15625 466.179688 29.488281 489.644531 60.402344 C 515.421875 94.371094 504.523438 136.542969 476.847656 160.941406 C 419.628906 211.375 348.476562 153.597656 359.535156 148.070312 " fill-opacity="1" fill-rule="nonzero"/><g fill="#ffffff" fill-opacity="1"><g transform="translate(179.98137, 276.292543)"><g><path d="M 6.53125 -56.59375 L 19.28125 -56.59375 L 19.28125 0 L 6.53125 0 Z M 6.53125 -56.59375 "/></g></g></g><g fill="#ffffff" fill-opacity="1"><g transform="translate(205.78684, 276.292543)"><g><path d="M 5.71875 -41.484375 C 7.789062 -42.085938 10.457031 -42.644531 13.71875 -43.15625 C 16.988281 -43.675781 20.421875 -43.9375 24.015625 -43.9375 C 27.660156 -43.9375 30.691406 -43.457031 33.109375 -42.5 C 35.535156 -41.550781 37.457031 -40.207031 38.875 -38.46875 C 40.289062 -36.726562 41.296875 -34.660156 41.890625 -32.265625 C 42.492188 -29.867188 42.796875 -27.195312 42.796875 -24.25 L 42.796875 0 L 30.625 0 L 30.625 -22.78125 C 30.625 -26.707031 30.109375 -29.484375 29.078125 -31.109375 C 28.046875 -32.742188 26.113281 -33.5625 23.28125 -33.5625 C 22.40625 -33.5625 21.476562 -33.519531 20.5 -33.4375 C 19.519531 -33.363281 18.648438 -33.269531 17.890625 -33.15625 L 17.890625 0 L 5.71875 0 Z M 5.71875 -41.484375 "/></g></g></g><g fill="#ffffff" fill-opacity="1"><g transform="translate(253.886259, 276.292543)"><g><path d="M 24.34375 -63.375 C 26.625 -63.375 28.71875 -63.140625 30.625 -62.671875 C 32.53125 -62.210938 34 -61.765625 35.03125 -61.328125 L 32.671875 -51.609375 C 31.578125 -52.109375 30.390625 -52.476562 29.109375 -52.71875 C 27.835938 -52.96875 26.65625 -53.09375 25.5625 -53.09375 C 24.09375 -53.09375 22.851562 -52.882812 21.84375 -52.46875 C 20.84375 -52.0625 20.054688 -51.503906 19.484375 -50.796875 C 18.910156 -50.085938 18.5 -49.242188 18.25 -48.265625 C 18.007812 -47.285156 17.890625 -46.222656 17.890625 -45.078125 L 17.890625 -42.953125 L 32.90625 -42.953125 L 32.90625 -32.828125 L 17.890625 -32.828125 L 17.890625 0 L 5.71875 0 L 5.71875 -45.25 C 5.71875 -50.800781 7.28125 -55.207031 10.40625 -58.46875 C 13.539062 -61.738281 18.1875 -63.375 24.34375 -63.375 Z M 24.34375 -63.375 "/></g></g></g><g fill="#ffffff" fill-opacity="1"><g transform="translate(288.347981, 276.292543)"><g><path d="M 17.890625 0 L 5.71875 0 L 5.71875 -42.953125 L 17.890625 -42.953125 Z M 19.03125 -55.375 C 19.03125 -53.144531 18.304688 -51.390625 16.859375 -50.109375 C 15.421875 -48.828125 13.722656 -48.1875 11.765625 -48.1875 C 9.804688 -48.1875 8.101562 -48.828125 6.65625 -50.109375 C 5.207031 -51.390625 4.484375 -53.144531 4.484375 -55.375 C 4.484375 -57.601562 5.207031 -59.359375 6.65625 -60.640625 C 8.101562 -61.921875 9.804688 -62.5625 11.765625 -62.5625 C 13.722656 -62.5625 15.421875 -61.921875 16.859375 -60.640625 C 18.304688 -59.359375 19.03125 -57.601562 19.03125 -55.375 Z M 19.03125 -55.375 "/></g></g></g><g fill="#ffffff" fill-opacity="1"><g transform="translate(311.948549, 276.292543)"><g><path d="M 5.71875 -41.484375 C 7.789062 -42.085938 10.457031 -42.644531 13.71875 -43.15625 C 16.988281 -43.675781 20.421875 -43.9375 24.015625 -43.9375 C 27.660156 -43.9375 30.691406 -43.457031 33.109375 -42.5 C 35.535156 -41.550781 37.457031 -40.207031 38.875 -38.46875 C 40.289062 -36.726562 41.296875 -34.660156 41.890625 -32.265625 C 42.492188 -29.867188 42.796875 -27.195312 42.796875 -24.25 L 42.796875 0 L 30.625 0 L 30.625 -22.78125 C 30.625 -26.707031 30.109375 -29.484375 29.078125 -31.109375 C 28.046875 -32.742188 26.113281 -33.5625 23.28125 -33.5625 C 22.40625 -33.5625 21.476562 -33.519531 20.5 -33.4375 C 19.519531 -33.363281 18.648438 -33.269531 17.890625 -33.15625 L 17.890625 0 L 5.71875 0 Z M 5.71875 -41.484375 "/></g></g></g><g fill="#ffffff" fill-opacity="1"><g transform="translate(360.047968, 276.292543)"><g><path d="M 17.890625 0 L 5.71875 0 L 5.71875 -42.953125 L 17.890625 -42.953125 Z M 19.03125 -55.375 C 19.03125 -53.144531 18.304688 -51.390625 16.859375 -50.109375 C 15.421875 -48.828125 13.722656 -48.1875 11.765625 -48.1875 C 9.804688 -48.1875 8.101562 -48.828125 6.65625 -50.109375 C 5.207031 -51.390625 4.484375 -53.144531 4.484375 -55.375 C 4.484375 -57.601562 5.207031 -59.359375 6.65625 -60.640625 C 8.101562 -61.921875 9.804688 -62.5625 11.765625 -62.5625 C 13.722656 -62.5625 15.421875 -61.921875 16.859375 -60.640625 C 18.304688 -59.359375 19.03125 -57.601562 19.03125 -55.375 Z M 19.03125 -55.375 "/></g></g></g><g fill="#ffffff" fill-opacity="1"><g transform="translate(383.648535, 276.292543)"><g><path d="M 5.3125 -53.65625 L 17.484375 -55.625 L 17.484375 -42.953125 L 32.09375 -42.953125 L 32.09375 -32.828125 L 17.484375 -32.828125 L 17.484375 -17.71875 C 17.484375 -15.164062 17.929688 -13.125 18.828125 -11.59375 C 19.722656 -10.070312 21.53125 -9.3125 24.25 -9.3125 C 25.5625 -9.3125 26.910156 -9.429688 28.296875 -9.671875 C 29.679688 -9.921875 30.945312 -10.265625 32.09375 -10.703125 L 33.8125 -1.21875 C 32.34375 -0.625 30.707031 -0.109375 28.90625 0.328125 C 27.113281 0.765625 24.910156 0.984375 22.296875 0.984375 C 18.972656 0.984375 16.222656 0.535156 14.046875 -0.359375 C 11.867188 -1.265625 10.125 -2.519531 8.8125 -4.125 C 7.507812 -5.726562 6.597656 -7.671875 6.078125 -9.953125 C 5.566406 -12.242188 5.3125 -14.78125 5.3125 -17.5625 Z M 5.3125 -53.65625 "/></g></g></g><g fill="#ffffff" fill-opacity="1"><g transform="translate(421.713983, 283.387071)"><g><path d="M 51.078125 -50.03125 C 48.222656 -40.394531 45.242188 -31.359375 42.140625 -22.921875 C 39.035156 -14.492188 35.644531 -6.316406 31.96875 1.609375 C 30.632812 4.460938 29.300781 6.890625 27.96875 8.890625 C 26.632812 10.890625 25.175781 12.539062 23.59375 13.84375 C 22.007812 15.144531 20.21875 16.09375 18.21875 16.6875 C 16.21875 17.289062 13.882812 17.59375 11.21875 17.59375 C 9 17.59375 6.953125 17.382812 5.078125 16.96875 C 3.210938 16.5625 1.675781 16.101562 0.46875 15.59375 L 2.953125 4.28125 C 4.410156 4.789062 5.707031 5.140625 6.84375 5.328125 C 7.988281 5.515625 9.195312 5.609375 10.46875 5.609375 C 13 5.609375 14.945312 4.925781 16.3125 3.5625 C 17.675781 2.195312 18.832031 0.3125 19.78125 -2.09375 C 16.550781 -8.4375 13.316406 -15.554688 10.078125 -23.453125 C 6.847656 -31.347656 3.804688 -40.207031 0.953125 -50.03125 L 15.984375 -50.03125 C 16.617188 -47.5625 17.363281 -44.882812 18.21875 -42 C 19.070312 -39.113281 19.972656 -36.195312 20.921875 -33.25 C 21.878906 -30.300781 22.847656 -27.429688 23.828125 -24.640625 C 24.804688 -21.847656 25.742188 -19.3125 26.640625 -17.03125 C 27.460938 -19.3125 28.316406 -21.847656 29.203125 -24.640625 C 30.085938 -27.429688 30.957031 -30.300781 31.8125 -33.25 C 32.675781 -36.195312 33.503906 -39.113281 34.296875 -42 C 35.085938 -44.882812 35.800781 -47.5625 36.4375 -50.03125 Z M 51.078125 -50.03125 "/></g></g></g><g fill="#ffffff" fill-opacity="1"><g transform="translate(185.604269, 301.483675)"><g><path d="M 0.984375 -5.71875 C 0.984375 -6.539062 1.113281 -7.316406 1.375 -8.046875 C 1.644531 -8.773438 2.03125 -9.410156 2.53125 -9.953125 C 3.039062 -10.492188 3.65625 -10.925781 4.375 -11.25 C 5.101562 -11.570312 5.929688 -11.734375 6.859375 -11.734375 C 7.472656 -11.734375 8.03125 -11.675781 8.53125 -11.5625 C 9.039062 -11.457031 9.535156 -11.300781 10.015625 -11.09375 L 9.34375 -8.515625 C 9.039062 -8.628906 8.707031 -8.726562 8.34375 -8.8125 C 7.976562 -8.90625 7.570312 -8.953125 7.125 -8.953125 C 6.164062 -8.953125 5.453125 -8.65625 4.984375 -8.0625 C 4.515625 -7.46875 4.28125 -6.6875 4.28125 -5.71875 C 4.28125 -4.6875 4.5 -3.882812 4.9375 -3.3125 C 5.382812 -2.75 6.15625 -2.46875 7.25 -2.46875 C 7.644531 -2.46875 8.066406 -2.503906 8.515625 -2.578125 C 8.960938 -2.648438 9.375 -2.769531 9.75 -2.9375 L 10.203125 -0.28125 C 9.828125 -0.125 9.359375 0.0078125 8.796875 0.125 C 8.234375 0.238281 7.609375 0.296875 6.921875 0.296875 C 5.878906 0.296875 4.984375 0.144531 4.234375 -0.15625 C 3.484375 -0.46875 2.863281 -0.890625 2.375 -1.421875 C 1.894531 -1.960938 1.539062 -2.597656 1.3125 -3.328125 C 1.09375 -4.066406 0.984375 -4.863281 0.984375 -5.71875 Z M 0.984375 -5.71875 "/></g></g></g><g fill="#ffffff" fill-opacity="1"><g transform="translate(201.487448, 301.483675)"><g><path d="M 8.40625 -8.5625 C 8.113281 -8.632812 7.769531 -8.707031 7.375 -8.78125 C 6.988281 -8.863281 6.570312 -8.90625 6.125 -8.90625 C 5.925781 -8.90625 5.679688 -8.882812 5.390625 -8.84375 C 5.109375 -8.8125 4.894531 -8.773438 4.75 -8.734375 L 4.75 0 L 1.515625 0 L 1.515625 -10.8125 C 2.097656 -11.019531 2.78125 -11.210938 3.5625 -11.390625 C 4.351562 -11.566406 5.238281 -11.65625 6.21875 -11.65625 C 6.382812 -11.65625 6.585938 -11.644531 6.828125 -11.625 C 7.078125 -11.601562 7.328125 -11.570312 7.578125 -11.53125 C 7.828125 -11.5 8.070312 -11.457031 8.3125 -11.40625 C 8.5625 -11.363281 8.773438 -11.304688 8.953125 -11.234375 Z M 8.40625 -8.5625 "/></g></g></g><g fill="#ffffff" fill-opacity="1"><g transform="translate(215.67597, 301.483675)"><g><path d="M 0.984375 -5.625 C 0.984375 -6.632812 1.132812 -7.519531 1.4375 -8.28125 C 1.75 -9.039062 2.160156 -9.675781 2.671875 -10.1875 C 3.179688 -10.695312 3.765625 -11.082031 4.421875 -11.34375 C 5.078125 -11.601562 5.753906 -11.734375 6.453125 -11.734375 C 8.078125 -11.734375 9.359375 -11.234375 10.296875 -10.234375 C 11.234375 -9.242188 11.703125 -7.785156 11.703125 -5.859375 C 11.703125 -5.671875 11.691406 -5.460938 11.671875 -5.234375 C 11.660156 -5.015625 11.648438 -4.816406 11.640625 -4.640625 L 4.296875 -4.640625 C 4.367188 -3.984375 4.679688 -3.457031 5.234375 -3.0625 C 5.785156 -2.664062 6.523438 -2.46875 7.453125 -2.46875 C 8.046875 -2.46875 8.628906 -2.519531 9.203125 -2.625 C 9.773438 -2.738281 10.238281 -2.878906 10.59375 -3.046875 L 11.03125 -0.40625 C 10.851562 -0.320312 10.617188 -0.234375 10.328125 -0.140625 C 10.046875 -0.0546875 9.726562 0.015625 9.375 0.078125 C 9.019531 0.140625 8.640625 0.191406 8.234375 0.234375 C 7.828125 0.273438 7.421875 0.296875 7.015625 0.296875 C 5.984375 0.296875 5.085938 0.144531 4.328125 -0.15625 C 3.566406 -0.457031 2.9375 -0.867188 2.4375 -1.390625 C 1.9375 -1.921875 1.566406 -2.546875 1.328125 -3.265625 C 1.097656 -3.992188 0.984375 -4.78125 0.984375 -5.625 Z M 8.578125 -6.859375 C 8.566406 -7.140625 8.519531 -7.410156 8.4375 -7.671875 C 8.351562 -7.929688 8.226562 -8.160156 8.0625 -8.359375 C 7.894531 -8.566406 7.6875 -8.734375 7.4375 -8.859375 C 7.1875 -8.992188 6.875 -9.0625 6.5 -9.0625 C 6.132812 -9.0625 5.820312 -9 5.5625 -8.875 C 5.300781 -8.75 5.082031 -8.582031 4.90625 -8.375 C 4.726562 -8.175781 4.59375 -7.941406 4.5 -7.671875 C 4.40625 -7.410156 4.335938 -7.140625 4.296875 -6.859375 Z M 8.578125 -6.859375 "/></g></g></g><g fill="#ffffff" fill-opacity="1"><g transform="translate(233.384173, 301.483675)"><g><path d="M 5.890625 -2.265625 C 6.203125 -2.265625 6.503906 -2.269531 6.796875 -2.28125 C 7.085938 -2.289062 7.320312 -2.3125 7.5 -2.34375 L 7.5 -4.796875 C 7.363281 -4.828125 7.164062 -4.859375 6.90625 -4.890625 C 6.644531 -4.921875 6.40625 -4.9375 6.1875 -4.9375 C 5.882812 -4.9375 5.597656 -4.914062 5.328125 -4.875 C 5.066406 -4.84375 4.832031 -4.773438 4.625 -4.671875 C 4.425781 -4.566406 4.265625 -4.425781 4.140625 -4.25 C 4.023438 -4.082031 3.96875 -3.867188 3.96875 -3.609375 C 3.96875 -3.097656 4.140625 -2.742188 4.484375 -2.546875 C 4.828125 -2.359375 5.296875 -2.265625 5.890625 -2.265625 Z M 5.625 -11.734375 C 6.582031 -11.734375 7.378906 -11.625 8.015625 -11.40625 C 8.648438 -11.1875 9.160156 -10.875 9.546875 -10.46875 C 9.929688 -10.0625 10.203125 -9.566406 10.359375 -8.984375 C 10.515625 -8.410156 10.59375 -7.769531 10.59375 -7.0625 L 10.59375 -0.328125 C 10.132812 -0.222656 9.488281 -0.101562 8.65625 0.03125 C 7.832031 0.164062 6.835938 0.234375 5.671875 0.234375 C 4.929688 0.234375 4.257812 0.164062 3.65625 0.03125 C 3.0625 -0.09375 2.546875 -0.300781 2.109375 -0.59375 C 1.671875 -0.894531 1.335938 -1.28125 1.109375 -1.75 C 0.878906 -2.226562 0.765625 -2.816406 0.765625 -3.515625 C 0.765625 -4.179688 0.894531 -4.742188 1.15625 -5.203125 C 1.425781 -5.671875 1.785156 -6.039062 2.234375 -6.3125 C 2.679688 -6.59375 3.191406 -6.796875 3.765625 -6.921875 C 4.347656 -7.046875 4.953125 -7.109375 5.578125 -7.109375 C 6.003906 -7.109375 6.378906 -7.085938 6.703125 -7.046875 C 7.023438 -7.015625 7.289062 -6.96875 7.5 -6.90625 L 7.5 -7.203125 C 7.5 -7.753906 7.332031 -8.195312 7 -8.53125 C 6.664062 -8.863281 6.082031 -9.03125 5.25 -9.03125 C 4.707031 -9.03125 4.164062 -8.988281 3.625 -8.90625 C 3.09375 -8.832031 2.628906 -8.722656 2.234375 -8.578125 L 1.828125 -11.1875 C 2.015625 -11.238281 2.25 -11.296875 2.53125 -11.359375 C 2.8125 -11.429688 3.117188 -11.492188 3.453125 -11.546875 C 3.785156 -11.597656 4.132812 -11.640625 4.5 -11.671875 C 4.875 -11.710938 5.25 -11.734375 5.625 -11.734375 Z M 5.625 -11.734375 "/></g></g></g><g fill="#ffffff" fill-opacity="1"><g transform="translate(250.418856, 301.483675)"><g><path d="M 1.40625 -14.265625 L 4.640625 -14.796875 L 4.640625 -11.421875 L 8.53125 -11.421875 L 8.53125 -8.734375 L 4.640625 -8.734375 L 4.640625 -4.71875 C 4.640625 -4.03125 4.757812 -3.484375 5 -3.078125 C 5.238281 -2.671875 5.722656 -2.46875 6.453125 -2.46875 C 6.796875 -2.46875 7.148438 -2.5 7.515625 -2.5625 C 7.890625 -2.632812 8.226562 -2.726562 8.53125 -2.84375 L 8.984375 -0.328125 C 8.597656 -0.171875 8.164062 -0.0351562 7.6875 0.078125 C 7.207031 0.203125 6.617188 0.265625 5.921875 0.265625 C 5.046875 0.265625 4.316406 0.144531 3.734375 -0.09375 C 3.148438 -0.332031 2.6875 -0.664062 2.34375 -1.09375 C 2 -1.519531 1.753906 -2.035156 1.609375 -2.640625 C 1.472656 -3.253906 1.40625 -3.929688 1.40625 -4.671875 Z M 1.40625 -14.265625 "/></g></g></g><g fill="#ffffff" fill-opacity="1"><g transform="translate(265.08536, 301.483675)"><g><path d="M 4.75 0 L 1.515625 0 L 1.515625 -11.421875 L 4.75 -11.421875 Z M 5.0625 -14.71875 C 5.0625 -14.125 4.867188 -13.65625 4.484375 -13.3125 C 4.097656 -12.976562 3.644531 -12.8125 3.125 -12.8125 C 2.601562 -12.8125 2.148438 -12.976562 1.765625 -13.3125 C 1.378906 -13.65625 1.1875 -14.125 1.1875 -14.71875 C 1.1875 -15.3125 1.378906 -15.78125 1.765625 -16.125 C 2.148438 -16.46875 2.601562 -16.640625 3.125 -16.640625 C 3.644531 -16.640625 4.097656 -16.46875 4.484375 -16.125 C 4.867188 -15.78125 5.0625 -15.3125 5.0625 -14.71875 Z M 5.0625 -14.71875 "/></g></g></g><g fill="#ffffff" fill-opacity="1"><g transform="translate(276.384258, 301.483675)"><g><path d="M 4.625 0 C 3.882812 -1.445312 3.132812 -3.140625 2.375 -5.078125 C 1.613281 -7.023438 0.894531 -9.140625 0.21875 -11.421875 L 3.65625 -11.421875 C 3.789062 -10.859375 3.957031 -10.242188 4.15625 -9.578125 C 4.351562 -8.921875 4.554688 -8.253906 4.765625 -7.578125 C 4.972656 -6.910156 5.179688 -6.257812 5.390625 -5.625 C 5.609375 -4.988281 5.816406 -4.410156 6.015625 -3.890625 C 6.203125 -4.410156 6.40625 -4.988281 6.625 -5.625 C 6.84375 -6.257812 7.054688 -6.910156 7.265625 -7.578125 C 7.472656 -8.253906 7.675781 -8.921875 7.875 -9.578125 C 8.070312 -10.242188 8.242188 -10.859375 8.390625 -11.421875 L 11.734375 -11.421875 C 11.046875 -9.140625 10.320312 -7.023438 9.5625 -5.078125 C 8.800781 -3.140625 8.050781 -1.445312 7.3125 0 Z M 4.625 0 "/></g></g></g><g fill="#ffffff" fill-opacity="1"><g transform="translate(293.353774, 301.483675)"><g><path d="M 0.984375 -5.625 C 0.984375 -6.632812 1.132812 -7.519531 1.4375 -8.28125 C 1.75 -9.039062 2.160156 -9.675781 2.671875 -10.1875 C 3.179688 -10.695312 3.765625 -11.082031 4.421875 -11.34375 C 5.078125 -11.601562 5.753906 -11.734375 6.453125 -11.734375 C 8.078125 -11.734375 9.359375 -11.234375 10.296875 -10.234375 C 11.234375 -9.242188 11.703125 -7.785156 11.703125 -5.859375 C 11.703125 -5.671875 11.691406 -5.460938 11.671875 -5.234375 C 11.660156 -5.015625 11.648438 -4.816406 11.640625 -4.640625 L 4.296875 -4.640625 C 4.367188 -3.984375 4.679688 -3.457031 5.234375 -3.0625 C 5.785156 -2.664062 6.523438 -2.46875 7.453125 -2.46875 C 8.046875 -2.46875 8.628906 -2.519531 9.203125 -2.625 C 9.773438 -2.738281 10.238281 -2.878906 10.59375 -3.046875 L 11.03125 -0.40625 C 10.851562 -0.320312 10.617188 -0.234375 10.328125 -0.140625 C 10.046875 -0.0546875 9.726562 0.015625 9.375 0.078125 C 9.019531 0.140625 8.640625 0.191406 8.234375 0.234375 C 7.828125 0.273438 7.421875 0.296875 7.015625 0.296875 C 5.984375 0.296875 5.085938 0.144531 4.328125 -0.15625 C 3.566406 -0.457031 2.9375 -0.867188 2.4375 -1.390625 C 1.9375 -1.921875 1.566406 -2.546875 1.328125 -3.265625 C 1.097656 -3.992188 0.984375 -4.78125 0.984375 -5.625 Z M 8.578125 -6.859375 C 8.566406 -7.140625 8.519531 -7.410156 8.4375 -7.671875 C 8.351562 -7.929688 8.226562 -8.160156 8.0625 -8.359375 C 7.894531 -8.566406 7.6875 -8.734375 7.4375 -8.859375 C 7.1875 -8.992188 6.875 -9.0625 6.5 -9.0625 C 6.132812 -9.0625 5.820312 -9 5.5625 -8.875 C 5.300781 -8.75 5.082031 -8.582031 4.90625 -8.375 C 4.726562 -8.175781 4.59375 -7.941406 4.5 -7.671875 C 4.40625 -7.410156 4.335938 -7.140625 4.296875 -6.859375 Z M 8.578125 -6.859375 "/></g></g></g><g fill="#ffffff" fill-opacity="1"><g transform="translate(311.061972, 301.483675)"><g/></g></g><g fill="#ffffff" fill-opacity="1"><g transform="translate(321.296276, 301.483675)"><g><path d="M 4.796875 -2.328125 C 5.390625 -2.328125 5.804688 -2.382812 6.046875 -2.5 C 6.296875 -2.613281 6.421875 -2.835938 6.421875 -3.171875 C 6.421875 -3.429688 6.257812 -3.65625 5.9375 -3.84375 C 5.625 -4.039062 5.144531 -4.265625 4.5 -4.515625 C 3.988281 -4.703125 3.523438 -4.894531 3.109375 -5.09375 C 2.703125 -5.300781 2.351562 -5.546875 2.0625 -5.828125 C 1.769531 -6.109375 1.546875 -6.441406 1.390625 -6.828125 C 1.234375 -7.222656 1.15625 -7.695312 1.15625 -8.25 C 1.15625 -9.320312 1.550781 -10.171875 2.34375 -10.796875 C 3.144531 -11.421875 4.238281 -11.734375 5.625 -11.734375 C 6.320312 -11.734375 6.988281 -11.671875 7.625 -11.546875 C 8.257812 -11.421875 8.765625 -11.285156 9.140625 -11.140625 L 8.578125 -8.625 C 8.203125 -8.75 7.789062 -8.863281 7.34375 -8.96875 C 6.90625 -9.070312 6.410156 -9.125 5.859375 -9.125 C 4.847656 -9.125 4.34375 -8.84375 4.34375 -8.28125 C 4.34375 -8.144531 4.363281 -8.023438 4.40625 -7.921875 C 4.445312 -7.828125 4.53125 -7.734375 4.65625 -7.640625 C 4.789062 -7.546875 4.96875 -7.441406 5.1875 -7.328125 C 5.414062 -7.222656 5.707031 -7.101562 6.0625 -6.96875 C 6.769531 -6.707031 7.351562 -6.453125 7.8125 -6.203125 C 8.28125 -5.953125 8.644531 -5.675781 8.90625 -5.375 C 9.175781 -5.082031 9.363281 -4.753906 9.46875 -4.390625 C 9.582031 -4.023438 9.640625 -3.601562 9.640625 -3.125 C 9.640625 -2 9.21875 -1.144531 8.375 -0.5625 C 7.53125 0.0078125 6.332031 0.296875 4.78125 0.296875 C 3.757812 0.296875 2.910156 0.207031 2.234375 0.03125 C 1.566406 -0.132812 1.101562 -0.273438 0.84375 -0.390625 L 1.390625 -3.015625 C 1.941406 -2.796875 2.503906 -2.625 3.078125 -2.5 C 3.660156 -2.382812 4.234375 -2.328125 4.796875 -2.328125 Z M 4.796875 -2.328125 "/></g></g></g><g fill="#ffffff" fill-opacity="1"><g transform="translate(336.853566, 301.483675)"><g><path d="M 1.40625 -14.265625 L 4.640625 -14.796875 L 4.640625 -11.421875 L 8.53125 -11.421875 L 8.53125 -8.734375 L 4.640625 -8.734375 L 4.640625 -4.71875 C 4.640625 -4.03125 4.757812 -3.484375 5 -3.078125 C 5.238281 -2.671875 5.722656 -2.46875 6.453125 -2.46875 C 6.796875 -2.46875 7.148438 -2.5 7.515625 -2.5625 C 7.890625 -2.632812 8.226562 -2.726562 8.53125 -2.84375 L 8.984375 -0.328125 C 8.597656 -0.171875 8.164062 -0.0351562 7.6875 0.078125 C 7.207031 0.203125 6.617188 0.265625 5.921875 0.265625 C 5.046875 0.265625 4.316406 0.144531 3.734375 -0.09375 C 3.148438 -0.332031 2.6875 -0.664062 2.34375 -1.09375 C 2 -1.519531 1.753906 -2.035156 1.609375 -2.640625 C 1.472656 -3.253906 1.40625 -3.929688 1.40625 -4.671875 Z M 1.40625 -14.265625 "/></g></g></g><g fill="#ffffff" fill-opacity="1"><g transform="translate(351.520065, 301.483675)"><g><path d="M 11.265625 -0.390625 C 10.722656 -0.234375 10.015625 -0.0859375 9.140625 0.046875 C 8.273438 0.191406 7.363281 0.265625 6.40625 0.265625 C 5.4375 0.265625 4.628906 0.132812 3.984375 -0.125 C 3.335938 -0.382812 2.828125 -0.75 2.453125 -1.21875 C 2.078125 -1.695312 1.804688 -2.257812 1.640625 -2.90625 C 1.484375 -3.5625 1.40625 -4.28125 1.40625 -5.0625 L 1.40625 -11.421875 L 4.640625 -11.421875 L 4.640625 -5.453125 C 4.640625 -4.410156 4.773438 -3.65625 5.046875 -3.1875 C 5.328125 -2.726562 5.847656 -2.5 6.609375 -2.5 C 6.835938 -2.5 7.082031 -2.507812 7.34375 -2.53125 C 7.601562 -2.550781 7.832031 -2.578125 8.03125 -2.609375 L 8.03125 -11.421875 L 11.265625 -11.421875 Z M 11.265625 -0.390625 "/></g></g></g><g fill="#ffffff" fill-opacity="1"><g transform="translate(369.336909, 301.483675)"><g><path d="M 4.28125 -5.796875 C 4.28125 -4.796875 4.503906 -3.988281 4.953125 -3.375 C 5.398438 -2.769531 6.066406 -2.46875 6.953125 -2.46875 C 7.242188 -2.46875 7.507812 -2.476562 7.75 -2.5 C 8 -2.53125 8.203125 -2.554688 8.359375 -2.578125 L 8.359375 -8.46875 C 8.160156 -8.601562 7.894531 -8.710938 7.5625 -8.796875 C 7.238281 -8.878906 6.910156 -8.921875 6.578125 -8.921875 C 5.046875 -8.921875 4.28125 -7.878906 4.28125 -5.796875 Z M 11.59375 -0.375 C 11.300781 -0.28125 10.96875 -0.191406 10.59375 -0.109375 C 10.21875 -0.0351562 9.820312 0.0234375 9.40625 0.078125 C 9 0.140625 8.582031 0.1875 8.15625 0.21875 C 7.726562 0.257812 7.316406 0.28125 6.921875 0.28125 C 5.984375 0.28125 5.144531 0.144531 4.40625 -0.125 C 3.664062 -0.40625 3.039062 -0.800781 2.53125 -1.3125 C 2.03125 -1.820312 1.644531 -2.441406 1.375 -3.171875 C 1.113281 -3.910156 0.984375 -4.734375 0.984375 -5.640625 C 0.984375 -6.566406 1.097656 -7.40625 1.328125 -8.15625 C 1.554688 -8.90625 1.882812 -9.539062 2.3125 -10.0625 C 2.75 -10.582031 3.28125 -10.976562 3.90625 -11.25 C 4.539062 -11.519531 5.265625 -11.65625 6.078125 -11.65625 C 6.523438 -11.65625 6.925781 -11.613281 7.28125 -11.53125 C 7.632812 -11.445312 7.992188 -11.320312 8.359375 -11.15625 L 8.359375 -16.328125 L 11.59375 -16.859375 Z M 11.59375 -0.375 "/></g></g></g><g fill="#ffffff" fill-opacity="1"><g transform="translate(387.479649, 301.483675)"><g><path d="M 4.75 0 L 1.515625 0 L 1.515625 -11.421875 L 4.75 -11.421875 Z M 5.0625 -14.71875 C 5.0625 -14.125 4.867188 -13.65625 4.484375 -13.3125 C 4.097656 -12.976562 3.644531 -12.8125 3.125 -12.8125 C 2.601562 -12.8125 2.148438 -12.976562 1.765625 -13.3125 C 1.378906 -13.65625 1.1875 -14.125 1.1875 -14.71875 C 1.1875 -15.3125 1.378906 -15.78125 1.765625 -16.125 C 2.148438 -16.46875 2.601562 -16.640625 3.125 -16.640625 C 3.644531 -16.640625 4.097656 -16.46875 4.484375 -16.125 C 4.867188 -15.78125 5.0625 -15.3125 5.0625 -14.71875 Z M 5.0625 -14.71875 "/></g></g></g><g fill="#ffffff" fill-opacity="1"><g transform="translate(398.778553, 301.483675)"><g><path d="M 12.203125 -5.734375 C 12.203125 -4.835938 12.070312 -4.015625 11.8125 -3.265625 C 11.550781 -2.523438 11.175781 -1.890625 10.6875 -1.359375 C 10.195312 -0.828125 9.609375 -0.414062 8.921875 -0.125 C 8.234375 0.15625 7.460938 0.296875 6.609375 0.296875 C 5.765625 0.296875 5 0.15625 4.3125 -0.125 C 3.625 -0.414062 3.03125 -0.828125 2.53125 -1.359375 C 2.039062 -1.890625 1.660156 -2.523438 1.390625 -3.265625 C 1.117188 -4.015625 0.984375 -4.835938 0.984375 -5.734375 C 0.984375 -6.628906 1.125 -7.445312 1.40625 -8.1875 C 1.6875 -8.925781 2.078125 -9.554688 2.578125 -10.078125 C 3.078125 -10.597656 3.671875 -11.003906 4.359375 -11.296875 C 5.046875 -11.585938 5.796875 -11.734375 6.609375 -11.734375 C 7.429688 -11.734375 8.1875 -11.585938 8.875 -11.296875 C 9.5625 -11.003906 10.148438 -10.597656 10.640625 -10.078125 C 11.128906 -9.554688 11.507812 -8.925781 11.78125 -8.1875 C 12.0625 -7.445312 12.203125 -6.628906 12.203125 -5.734375 Z M 8.90625 -5.734375 C 8.90625 -6.734375 8.703125 -7.519531 8.296875 -8.09375 C 7.898438 -8.664062 7.335938 -8.953125 6.609375 -8.953125 C 5.867188 -8.953125 5.296875 -8.664062 4.890625 -8.09375 C 4.484375 -7.519531 4.28125 -6.734375 4.28125 -5.734375 C 4.28125 -4.734375 4.484375 -3.9375 4.890625 -3.34375 C 5.296875 -2.757812 5.867188 -2.46875 6.609375 -2.46875 C 7.335938 -2.46875 7.898438 -2.757812 8.296875 -3.34375 C 8.703125 -3.9375 8.90625 -4.734375 8.90625 -5.734375 Z M 8.90625 -5.734375 "/></g></g></g></svg>